# xmcd
#
# Track frame offsets: 
#        180
#        13517
#        29035
#        42214
#        56024
#        68662
#        83289
#        95990
#        107449
#        120990
#        135689
#        148401
#        160061
#        173579
#        185974
#        198193
#        210565
#        225047
#        237409
#        250633
#        264072
#        277641
#        288857
#        302549
#
# Disc length: 4215 seconds
#
# Revision: 0
# Processed by: cddbd v1.5.2PL0 Copyright (c) Steve Scherf et al.
# Submitted via: ExactAudioCopy v0.95b4
#
DISCID=37107518
DTITLE=Various Artist - Blues Generations Vol. 3 [CD 1]
DYEAR=2006
DGENRE=Blues
TTITLE0=Bessie Smith - Baby Won't You Jump With Me
TTITLE1=Bessie Smith - Careless Love Blues
TTITLE2=Bessie Smith - Blue Spirit Blues
TTITLE3=Mary Johnson - Delmar Avenue
TTITLE4=Sonny Tery - Harmonica Stomp
TTITLE5=Leadbelly - Easy Rider
TTITLE6=Big Joe Williams - Please Don't Go
TTITLE7=Brownie Mc Ghee - Done What My Lord Said
TTITLE8=Big Joe Turner - Goin' To Chicago Blues
TTITLE9=Big Joe Williams - Highway 49
TTITLE10=Arthur Big Boy Crudup - I Don't Know It
TTITLE11=Sonny Terry - Crow Jane Blues
TTITLE12=John Lee Williamson - Better Cut That Out
TTITLE13=T-Bone Walker - I'm In An Awful Mood
TTITLE14=John Lee Hooker - Burning Hell
TTITLE15=T-Bone Walker - I Know Your Wig Is Gone
TTITLE16=John Lee Hooker - Forgive Me
TTITLE17=T-Bone Walker - Midnight Blues
TTITLE18=John Lee Hooker - Hoogie Boogie
TTITLE19=John Lee Hooker - Ground Hog Blues
TTITLE20=B.B. King - Three O'clock Blues
TTITLE21=John Lee Hooker - Boom Boom
TTITLE22=John Lee Hooker - My Baby Don't Love Me
TTITLE23=Muddy Waters - I Want You To Love Me
EXTD=
EXTT0=
EXTT1=
EXTT2=
EXTT3=
EXTT4=
EXTT5=
EXTT6=
EXTT7=
EXTT8=
EXTT9=
EXTT10=
EXTT11=
EXTT12=
EXTT13=
EXTT14=
EXTT15=
EXTT16=
EXTT17=
EXTT18=
EXTT19=
EXTT20=
EXTT21=
EXTT22=
EXTT23=
PLAYORDER=
